<svg width="656" height="74" viewBox="0 0 656 74" fill="none" xmlns="http://www.w3.org/2000/svg">
<path d="M93.7695 1.98047L82.0508 67.6055C81.7904 68.9076 81.2044 70.0306 80.293 70.9746C79.3815 71.9186 78.2747 72.5208 76.9727 72.7812C75.638 73.0091 74.3685 72.8626 73.1641 72.3418C71.9922 71.821 71.0645 71.0072 70.3809 69.9004L47.1387 31.7168L23.8477 69.9004C23.2943 70.8444 22.5293 71.5768 21.5527 72.0977C20.6087 72.6185 19.5833 72.8789 18.4766 72.8789C16.9466 72.8789 15.5957 72.3906 14.4238 71.4141C13.252 70.4375 12.5358 69.168 12.2754 67.6055L0.458984 1.98047H13.3496L21.748 48.2207L41.7676 16.2871C42.321 15.3431 43.0697 14.6107 44.0137 14.0898C44.9902 13.569 46.0319 13.3086 47.1387 13.3086C48.2454 13.3086 49.2708 13.569 50.2148 14.0898C51.1589 14.6107 51.9401 15.3431 52.5586 16.2871L72.4805 48.2207L80.8789 1.98047H93.7695ZM162.227 43.3867H122.139V30.5938H162.227V43.3867ZM167.939 72H122.139C120.381 72 118.46 71.6908 116.377 71.0723C114.294 70.4538 112.357 69.4447 110.566 68.0449C108.809 66.6126 107.327 64.7734 106.123 62.5273C104.951 60.2487 104.365 57.4655 104.365 54.1777V8.37695C104.365 7.49805 104.528 6.66797 104.854 5.88672C105.179 5.10547 105.618 4.42188 106.172 3.83594C106.758 3.25 107.441 2.79427 108.223 2.46875C109.004 2.14323 109.85 1.98047 110.762 1.98047H167.939V14.6758H117.061V54.1777C117.061 55.8379 117.5 57.1074 118.379 57.9863C119.258 58.8652 120.544 59.3047 122.236 59.3047H167.939V72ZM281.855 65.6035C281.855 66.515 281.693 67.3613 281.367 68.1426C281.042 68.9238 280.586 69.6074 280 70.1934C279.447 70.7467 278.779 71.1862 277.998 71.5117C277.217 71.8372 276.37 72 275.459 72H229.658C228.486 72 227.217 71.8698 225.85 71.6094C224.515 71.3164 223.18 70.877 221.846 70.291C220.544 69.7051 219.29 68.9564 218.086 68.0449C216.882 67.1009 215.807 65.9779 214.863 64.6758C213.952 63.3411 213.219 61.8112 212.666 60.0859C212.113 58.3281 211.836 56.3587 211.836 54.1777V19.8027C211.836 18.6309 211.966 17.3776 212.227 16.043C212.52 14.6758 212.959 13.3411 213.545 12.0391C214.131 10.7044 214.896 9.4349 215.84 8.23047C216.784 7.02604 217.907 5.9681 219.209 5.05664C220.544 4.11263 222.074 3.36393 223.799 2.81055C225.524 2.25716 227.477 1.98047 229.658 1.98047H281.27V14.6758H229.658C227.998 14.6758 226.729 15.1152 225.85 15.9941C224.971 16.873 224.531 18.1751 224.531 19.9004V54.1777C224.531 55.8053 224.971 57.0749 225.85 57.9863C226.761 58.8652 228.031 59.3047 229.658 59.3047H269.16V43.3867H235.371V30.5938H275.459C276.37 30.5938 277.217 30.7728 277.998 31.1309C278.779 31.4564 279.447 31.9121 280 32.498C280.586 33.084 281.042 33.7676 281.367 34.5488C281.693 35.2975 281.855 36.1113 281.855 36.9902V65.6035ZM368.574 43.6797C368.574 47.944 367.842 51.8665 366.377 55.4473C364.912 59.028 362.878 62.1204 360.273 64.7246C357.669 67.3288 354.577 69.3633 350.996 70.8281C347.448 72.2604 343.574 72.9766 339.375 72.9766H322.188C317.988 72.9766 314.098 72.2604 310.518 70.8281C306.937 69.3633 303.844 67.3288 301.24 64.7246C298.636 62.1204 296.585 59.028 295.088 55.4473C293.623 51.8665 292.891 47.944 292.891 43.6797V30.3008C292.891 26.069 293.623 22.1628 295.088 18.582C296.585 14.9688 298.636 11.8763 301.24 9.30469C303.844 6.70052 306.937 4.66602 310.518 3.20117C314.098 1.73633 317.988 1.00391 322.188 1.00391H339.375C343.574 1.00391 347.448 1.73633 350.996 3.20117C354.577 4.66602 357.669 6.70052 360.273 9.30469C362.878 11.8763 364.912 14.9688 366.377 18.582C367.842 22.1628 368.574 26.069 368.574 30.3008V43.6797ZM355.879 30.3008C355.879 27.7943 355.472 25.5319 354.658 23.5137C353.877 21.4629 352.754 19.7214 351.289 18.2891C349.857 16.8242 348.115 15.7012 346.064 14.9199C344.046 14.1061 341.816 13.6992 339.375 13.6992H322.188C319.714 13.6992 317.451 14.1061 315.4 14.9199C313.382 15.7012 311.641 16.8242 310.176 18.2891C308.711 19.7214 307.572 21.4629 306.758 23.5137C305.977 25.5319 305.586 27.7943 305.586 30.3008V43.6797C305.586 46.1862 305.977 48.4648 306.758 50.5156C307.572 52.5339 308.711 54.2754 310.176 55.7402C311.641 57.1725 313.382 58.2956 315.4 59.1094C317.451 59.8906 319.714 60.2812 322.188 60.2812H339.277C341.751 60.2812 343.997 59.8906 346.016 59.1094C348.066 58.2956 349.824 57.1725 351.289 55.7402C352.754 54.2754 353.877 52.5339 354.658 50.5156C355.472 48.4648 355.879 46.1862 355.879 43.6797V30.3008ZM482.734 65.6035C482.734 66.515 482.572 67.3613 482.246 68.1426C481.921 68.9238 481.465 69.6074 480.879 70.1934C480.326 70.7467 479.658 71.1862 478.877 71.5117C478.096 71.8372 477.249 72 476.338 72H430.537C429.365 72 428.096 71.8698 426.729 71.6094C425.394 71.3164 424.059 70.877 422.725 70.291C421.423 69.7051 420.169 68.9564 418.965 68.0449C417.76 67.1009 416.686 65.9779 415.742 64.6758C414.831 63.3411 414.098 61.8112 413.545 60.0859C412.992 58.3281 412.715 56.3587 412.715 54.1777V19.8027C412.715 18.6309 412.845 17.3776 413.105 16.043C413.398 14.6758 413.838 13.3411 414.424 12.0391C415.01 10.7044 415.775 9.4349 416.719 8.23047C417.663 7.02604 418.786 5.9681 420.088 5.05664C421.423 4.11263 422.952 3.36393 424.678 2.81055C426.403 2.25716 428.356 1.98047 430.537 1.98047H482.148V14.6758H430.537C428.877 14.6758 427.607 15.1152 426.729 15.9941C425.85 16.873 425.41 18.1751 425.41 19.9004V54.1777C425.41 55.8053 425.85 57.0749 426.729 57.9863C427.64 58.8652 428.91 59.3047 430.537 59.3047H470.039V43.3867H436.25V30.5938H476.338C477.249 30.5938 478.096 30.7728 478.877 31.1309C479.658 31.4564 480.326 31.9121 480.879 32.498C481.465 33.084 481.921 33.7676 482.246 34.5488C482.572 35.2975 482.734 36.1113 482.734 36.9902V65.6035ZM562.666 25.418C562.666 28.3151 562.292 30.903 561.543 33.1816C560.827 35.4603 559.867 37.4785 558.662 39.2363C557.458 40.9616 556.042 42.4427 554.414 43.6797C552.819 44.9167 551.159 45.9421 549.434 46.7559C547.708 47.5371 545.951 48.1068 544.16 48.4648C542.402 48.8229 540.742 49.002 539.18 49.002H534.053V72H521.26V49.002H516.182C514.619 49.002 512.943 48.8229 511.152 48.4648C509.395 48.1068 507.637 47.5371 505.879 46.7559C504.154 45.9421 502.493 44.9167 500.898 43.6797C499.303 42.4427 497.887 40.9616 496.65 39.2363C495.446 37.4785 494.469 35.4603 493.721 33.1816C493.005 30.8704 492.646 28.2826 492.646 25.418V1.98047H505.342V25.418C505.342 27.0781 505.602 28.5755 506.123 29.9102C506.644 31.2122 507.376 32.3353 508.32 33.2793C509.264 34.2233 510.404 34.9557 511.738 35.4766C513.105 35.9648 514.619 36.209 516.279 36.209H539.18C540.384 36.0137 541.621 35.7695 542.891 35.4766C544.16 35.151 545.316 34.6139 546.357 33.8652C547.399 33.1165 548.262 32.0749 548.945 30.7402C549.629 29.4056 549.971 27.6315 549.971 25.418V1.98047H562.666V25.418ZM655.586 72H642.793V30.3008L620.283 69.9004C619.73 70.9095 618.949 71.6745 617.939 72.1953C616.963 72.7161 615.905 72.9766 614.766 72.9766C613.659 72.9766 612.617 72.7161 611.641 72.1953C610.697 71.6745 609.948 70.9095 609.395 69.9004L586.787 30.3008V72H574.092V7.40039C574.092 5.93555 574.515 4.63346 575.361 3.49414C576.24 2.35482 577.38 1.58984 578.779 1.19922C579.463 1.03646 580.146 0.98763 580.83 1.05273C581.514 1.08529 582.165 1.23177 582.783 1.49219C583.434 1.72005 584.02 2.06185 584.541 2.51758C585.062 2.94076 585.501 3.46159 585.859 4.08008L614.766 54.3242L643.672 4.08008C644.421 2.8431 645.446 1.96419 646.748 1.44336C648.083 0.922526 649.466 0.841146 650.898 1.19922C652.266 1.58984 653.389 2.35482 654.268 3.49414C655.146 4.63346 655.586 5.93555 655.586 7.40039V72Z" fill="black"/>
</svg>
